<?xml version="1.0" encoding="UTF-8"?>
<svg id="Capa_3" data-name="Capa 3" xmlns="http://www.w3.org/2000/svg" viewBox="0 0 69.06 66.03">
  <defs>
    <style>
      .cls-1 {
        fill: none;
        stroke: #000;
        stroke-miterlimit: 10;
      }
    </style>
  </defs>
  <polygon class="cls-1" points=".5 54.84 .5 28.07 68.56 28.07 68.56 54.84 58.4 54.84 58.54 44.29 10.26 44.55 10.39 54.84 .5 54.84"/>
  <polyline class="cls-1" points=".5 28.07 4.98 18.04 10.92 18.04 10.92 22.4 57.88 22.4 57.88 18.04 64.34 18.04 68.56 28.07"/>
  <polyline class="cls-1" points="10.92 18.04 10.92 9.86 15.01 9.86 15.01 22.4"/>
  <polyline class="cls-1" points="57.88 18.04 57.88 9.86 54.31 9.86 54.31 22.4"/>
  <circle class="cls-1" cx="59.66" cy="35.39" r="2.7"/>
  <polyline class="cls-1" points="15.01 9.86 15.01 .5 54.31 .5 54.31 9.86"/>
  <polyline class="cls-1" points="15.01 45.08 15.01 65.53 54.31 65.53 54.31 44.31"/>
  <rect class="cls-1" x="19.89" y="51.54" width="29.15" height="2.37"/>
  <rect class="cls-1" x="20.09" y="57.88" width="29.15" height="2.37"/>
  <line class="cls-1" x1="10.39" y1="54.84" x2="14.48" y2="54.92"/>
  <line class="cls-1" x1="58.4" y1="54.84" x2="54.31" y2="54.92"/>
  <rect class="cls-1" x="10.39" y="34" width="43.92" height=".66"/>
</svg>