<?xml version="1.0" encoding="UTF-8"?>
<svg id="Capa_1" data-name="Capa 1" xmlns="http://www.w3.org/2000/svg" viewBox="0 0 57.18 49.43">
  <defs>
    <style>
      .cls-1 {
        fill: none;
        stroke: #000;
        stroke-miterlimit: 10;
      }
    </style>
  </defs>
  <g>
    <path d="M33.01,9.6c4.66.46,8.07,4.6,7.61,9.26-.45,4.66-4.59,8.06-9.25,7.61-4.66-.46-8.06-4.6-7.61-9.26.45-4.65,4.6-8.06,9.25-7.61Z"/>
    <path class="cls-1" d="M40.62,18.86c-.45,4.66-4.59,8.06-9.25,7.61-4.66-.46-8.06-4.6-7.61-9.26.45-4.65,4.6-8.06,9.25-7.61,4.66.46,8.07,4.6,7.61,9.26Z"/>
  </g>
  <g>
    <path d="M32.09,29.13c17.64-1.58,14.48,12.82,14.48,12.82h-28.27c-1.93-16.15,13.79-12.82,13.79-12.82Z"/>
    <path class="cls-1" d="M18.3,41.95h28.27s3.16-14.4-14.48-12.82c0,0-15.72-3.33-13.79,12.82Z"/>
  </g>
  <rect class="cls-1" x=".5" y="18.04" width="11.38" height="4.18"/>
  <rect class="cls-1" x=".5" y="25.64" width="11.38" height="4.18"/>
  <rect class="cls-1" x=".5" y="33.31" width="11.38" height="4.18"/>
  <rect class="cls-1" x=".5" y="10.44" width="11.38" height="4.18"/>
  <polyline class="cls-1" points="8.25 37.49 8.25 48.93 56.68 48.93 56.68 .5 8.25 .5 8.25 10.44"/>
  <line class="cls-1" x1="8.25" y1="15.07" x2="8.25" y2="17.57"/>
  <line class="cls-1" x1="8.25" y1="22.22" x2="8.25" y2="25.64"/>
  <line class="cls-1" x1="8.25" y1="29.82" x2="8.25" y2="33.31"/>
</svg>