<?xml version="1.0" encoding="UTF-8"?>
<svg id="Capa_2" data-name="Capa 2" xmlns="http://www.w3.org/2000/svg" viewBox="0 0 80.48 62.97">
  <defs>
    <style>
      .cls-1, .cls-2 {
        fill: none;
        stroke: #000;
        stroke-miterlimit: 10;
      }

      .cls-2 {
        opacity: .62;
      }
    </style>
  </defs>
  <polygon class="cls-1" points="24.99 35.65 1.95 58.45 19.51 52.18 36.39 62.44 53.49 58.79 76.3 35.65 58.97 39.75 38.74 31.91 24.99 35.65"/>
  <line class="cls-1" x1="19.51" y1="52.18" x2="38.74" y2="32.45"/>
  <line class="cls-1" x1="36.39" y1="62.44" x2="58.97" y2="39.75"/>
  <line class="cls-2" x1="37.15" y1="34.09" x2="39.5" y2="31.91"/>
  <g id="Capa_3" data-name="Capa 3">
    <g>
      <g>
        <path d="M79.04,4.3c3.35,2.98-3.36,7.65-3.36,7.65l-5.69-6.72c3.92-5.69,4.99-4.66,4.99-4.66,1.36.19,4.06,3.73,4.06,3.73Z"/>
        <polygon points="68.35 6.89 74.22 13.61 49.51 41.4 41.19 44.01 43.35 35.4 68.35 6.89"/>
      </g>
      <g>
        <polygon class="cls-1" points="41.19 44.01 43.35 35.4 68.35 6.89 74.22 13.61 49.51 41.4 41.19 44.01"/>
        <path class="cls-1" d="M69.99,5.23l5.69,6.72s6.71-4.67,3.36-7.65c0,0-2.7-3.54-4.06-3.73,0,0-1.07-1.03-4.99,4.66Z"/>
      </g>
    </g>
  </g>
</svg>