<?xml version="1.0" encoding="UTF-8"?>
<svg id="Capa_3" data-name="Capa 3" xmlns="http://www.w3.org/2000/svg" viewBox="0 0 49.46 67.42">
  <defs>
    <style>
      .cls-1 {
        fill: none;
        stroke: #000;
        stroke-miterlimit: 10;
      }
    </style>
  </defs>
  <polygon class="cls-1" points="3.62 5.28 3.62 55.07 37.48 55.07 37.48 17.36 25.76 17.18 25.95 5.28 3.62 5.28"/>
  <polygon class="cls-1" points=".5 58.55 40.59 58.55 40.59 13.7 29.06 13.7 28.87 1.26 .5 1.26 .5 58.55"/>
  <rect class="cls-1" x="8.55" y="19.97" width="23.98" height="3.66"/>
  <rect class="cls-1" x="8.55" y="26.42" width="23.98" height="3.48"/>
  <polygon class="cls-1" points="30.89 1.26 30.89 11.51 40.59 11.51 30.89 1.26"/>
  <g>
    <polygon points="48.06 56.91 40.59 56.38 45.37 63.77 40.59 66.73 35.74 58.55 29.51 63.64 29.51 40.11 48.06 56.91"/>
    <polygon class="cls-1" points="29.51 40.11 29.51 63.64 35.74 58.55 40.59 66.73 45.37 63.77 40.59 56.38 48.06 56.91 29.51 40.11"/>
  </g>
</svg>