<?xml version="1.0" encoding="UTF-8"?>
<svg id="Capa_2" data-name="Capa 2" xmlns="http://www.w3.org/2000/svg" viewBox="0 0 46.05 28.97">
  <defs>
    <style>
      .cls-1 {
        fill: none;
        stroke: #000;
        stroke-miterlimit: 10;
      }
    </style>
  </defs>
  <circle class="cls-1" cx="4.04" cy="4.94" r="3.54"/>
  <circle class="cls-1" cx="4.04" cy="14.93" r="3.54"/>
  <circle class="cls-1" cx="4.04" cy="24.93" r="3.54"/>
  <path class="cls-1" d="M11.22,7.14S8.07-.97,25.65,2.54c1.28.26,14.42,3.83,19.66-1.15,0,0-1.28,7.66-9.06,7.08,0,0-19.02-5.8-25.02-1.34Z"/>
  <path class="cls-1" d="M11.04,17.88s-3.15-8.11,14.42-4.6c1.28.26,14.42,3.83,19.66-1.15,0,0-1.28,7.66-9.06,7.08,0,0-19.02-5.8-25.02-1.34Z"/>
  <path class="cls-1" d="M11.22,27.1s-3.15-8.11,14.42-4.6c1.28.26,14.42,3.83,19.66-1.15,0,0-1.28,7.66-9.06,7.08,0,0-19.02-5.8-25.02-1.34Z"/>
</svg>